<svg class="svg-icon" style="width: 1em; height: 1em;vertical-align: middle;fill: #FFFFFF;overflow: hidden;" viewBox="0 0 1024 1024" version="1.1" xmlns="http://www.w3.org/2000/svg"><path d="M921.756 985.982H102.244c-41.206 0-74.728-33.52-74.728-74.724V270.83c0-16.882 13.686-30.57 30.57-30.57s30.57 13.69 30.57 30.57v640.426c0 7.49 6.096 13.582 13.586 13.582h819.512c7.49 0 13.586-6.092 13.586-13.582V515.422c0-16.882 13.686-30.57 30.57-30.57s30.57 13.69 30.57 30.57v395.836c0.004 41.206-33.518 74.724-74.724 74.724z" fill="#2D527C" /><path d="M993.43 329.462V165.214c0-24.386-19.77-44.154-44.156-44.154H74.728c-24.386-0.004-44.156 19.768-44.156 44.154v164.252h962.858v-0.004z" fill="#CEE8FA" /><path d="M993.43 360.036H30.57C13.686 360.036 0 346.346 0 329.466V165.214c0-41.206 33.52-74.724 74.728-74.724h874.544c41.208 0 74.728 33.52 74.728 74.724v164.252c0 16.88-13.686 30.57-30.57 30.57zM61.142 298.894h901.716v-133.68c0-7.49-6.096-13.582-13.586-13.582H74.728c-7.49 0-13.586 6.092-13.586 13.582v133.68z" fill="#2D527C" /><path d="M153.548 208.198c-16.884 0-30.57-13.69-30.57-30.57v-109.04c0-16.882 13.686-30.57 30.57-30.57S184.12 51.708 184.12 68.588v109.038c0 16.882-13.688 30.572-30.572 30.572zM332.774 208.198c-16.884 0-30.57-13.69-30.57-30.57v-109.04c0-16.882 13.686-30.57 30.57-30.57s30.57 13.69 30.57 30.57v109.038c0 16.882-13.686 30.572-30.57 30.572zM691.226 208.198c-16.884 0-30.57-13.69-30.57-30.57v-109.04c0-16.882 13.686-30.57 30.57-30.57s30.57 13.69 30.57 30.57v109.038c0.002 16.882-13.686 30.572-30.57 30.572zM511.998 208.198c-16.884 0-30.57-13.69-30.57-30.57v-109.04c0-16.882 13.686-30.57 30.57-30.57s30.57 13.69 30.57 30.57v109.038c0.002 16.882-13.686 30.572-30.57 30.572zM870.452 208.198c-16.884 0-30.57-13.69-30.57-30.57v-109.04c0-16.882 13.686-30.57 30.57-30.57s30.57 13.69 30.57 30.57v109.038c0 16.882-13.686 30.572-30.57 30.572zM508.324 719.948a30.572 30.572 0 0 1-21.616-8.954l-94.764-94.764c-11.938-11.938-11.938-31.296 0-43.236 11.938-11.934 31.296-11.932 43.234 0l73.144 73.148 139.274-139.274c11.938-11.934 31.296-11.934 43.236 0 11.938 11.938 11.938 31.296 0 43.236l-160.892 160.892a30.574 30.574 0 0 1-21.616 8.952z" fill="#2D527C" /><path d="M721.344 833.136H302.656c-16.884 0-30.57-13.69-30.57-30.57V475.678c0-16.882 13.686-30.57 30.57-30.57h189.982c16.884 0 30.57 13.69 30.57 30.57 0 16.882-13.686 30.57-30.57 30.57h-159.412v265.75h357.548V641.14c0-16.882 13.686-30.57 30.57-30.57s30.57 13.69 30.57 30.57v161.43c0.002 16.88-13.684 30.566-30.57 30.566z" fill="#2D527C" /></svg>