<svg class="svg-icon" style="width: 1em; height: 1em;vertical-align: middle;fill: #FFFFFF;overflow: hidden;" viewBox="0 0 1024 1024" version="1.1" xmlns="http://www.w3.org/2000/svg"><path d="M724.889645 862.823134c-10.1645 0-17.163915-1.24127-17.888416-1.375324l5.009084-27.300786c0.342808 0.063445 34.387181 5.869684 56.381102-12.551874 13.331633-11.166317 20.092617-29.668717 20.092617-54.991452l0-89.25072 0.615007-207.480448 95.187943-0.060375c2.699482 0 5.246491-1.166569 6.986111-3.199878 1.421372-1.688455 2.131547-3.91517 1.928932-6.187933-0.204661-2.286066-1.307785-4.368494-3.106758-5.860475L532.549012 158.966525l-0.178055-0.156566c-3.28686-2.911306-8.347109-2.994194-11.775184-0.194428L159.169139 454.045053l-0.286526 0.210801c-2.255367 1.657756-3.547803 4.178159-3.547803 6.91448 0 3.213181 5.588275 6.250354 11.498892 6.250354l94.461395 0-0.023536 291.960515c0 37.346583 30.878265 67.731614 68.833715 67.731614l241.932098 0c37.95545 0 68.832691-30.385031 68.832691-67.732637l0.016373-167.927617c0-37.33328-30.878265-67.706031-68.832691-67.706031l-98.589412 0c-37.948287 0-68.822458 30.372751-68.822458 67.706031L404.641877 664.466484l-27.756157 0 0-73.012897c0-52.638871 43.324738-95.462189 96.578616-95.462189l98.589412 0c53.258994 0 96.589872 42.823318 96.589872 95.462189l0 145.174404-0.016373 0 0 22.753213c0 52.653197-43.330878 95.488795-96.589872 95.488795L330.104253 854.869998c-53.260018 0-96.590895-42.835597-96.590895-95.488795l0.021489-264.203334-66.702168 0c-19.296485 0-39.255049-12.720719-39.255049-34.007535 0-11.357675 5.428639-22.183232 14.542204-29.039383l360.912933-295.008944c13.787004-11.263531 34.17945-10.930957 47.545876 0.73678l357.221868 295.327192c7.553023 6.266727 12.181437 15.056927 13.049201 24.768103 0.865717 9.697873-2.122337 19.152199-8.416693 26.621311-7.051603 8.243755-17.216103 12.9438-27.977191 12.992919l-2.944052 0.061398-64.73742 0-0.534166 179.763177 0 89.209788c0 34.037211-10.168594 59.752896-30.223349 76.43381C766.150374 859.560834 741.363851 862.823134 724.889645 862.823134z"  /></svg>