<svg class="svg-icon" style="width: 1em; height: 1em;vertical-align: middle;fill: white;overflow: hidden;" viewBox="0 0 1024 1024" version="1.1" xmlns="http://www.w3.org/2000/svg"><path d="M281.344 416.384c-12.8 0-32-12.8-32-32 0-19.072 19.2-31.872 32-31.872H543.36c19.2 0 32 12.8 32 31.936s-12.8 31.936-32 31.936H281.344z m0 383.04c-12.8 0-32-12.8-32-32 0-19.072 12.8-31.872 32-31.872H479.36c19.2 0 32 12.8 32 31.936 0 19.2-12.8 31.936-32 31.936H281.344z m0-191.552c-12.8 0-32-12.8-32-31.936s19.2-31.872 32-31.872h460.16c12.8 0 25.6 12.736 25.6 31.872 0 19.2-12.8 32-32 32h-453.76zM932.352 46.464h-89.856c-0.128 0 0 28.416 0 44.8v87.808a89.6 89.6 0 0 1-89.792 89.216H301.952a89.6 89.6 0 0 1-89.856-89.216V91.264c0-16.384-0.192-29.76-0.192-44.8h-90.24C72.192 46.528 32.064 86.016 32 134.784v799.104c0 48.768 40.192 88.384 89.664 88.384h811.328a89.152 89.152 0 0 0 89.6-88.32V134.784c0-48.64-40.512-88.32-90.24-88.32" fill="#000000" /><path d="M747.648 30.08a60.032 60.032 0 0 0-51.776-29.696H363.84a60.16 60.16 0 0 0-51.84 29.696 59.136 59.136 0 0 0-8.512 30.08v58.88a60.16 60.16 0 0 0 60.352 59.904h332.032a60.16 60.16 0 0 0 60.224-59.84V60.16c0-11.136-3.2-21.184-8.448-30.08" fill="#FFFFFF" /></svg>